<svg xmlns="http://www.w3.org/2000/svg" viewBox="0 0 512 512" role="img" aria-labelledby="title desc">
  <title id="title">Psychology by Edumynt logo</title>
  <desc id="desc">Edumynt educational logo for Psychology</desc>
  <defs>
    <linearGradient id="g" x1="0" x2="1" y1="0" y2="1">
      <stop offset="0" stop-color="#7c3aed"/>
      <stop offset="1" stop-color="#06b6d4"/>
    </linearGradient>
    <filter id="shadow" x="-20%" y="-20%" width="140%" height="140%">
      <feDropShadow dx="0" dy="14" stdDeviation="18" flood-color="#0f172a" flood-opacity="0.20"/>
    </filter>
  </defs>
  <rect width="512" height="512" rx="112" fill="#f8fafc"/>
  <circle cx="256" cy="240" r="170" fill="url(#g)" filter="url(#shadow)"/>
  <path d="M150 320c38 32 174 32 212 0v38c-44 34-168 34-212 0z" fill="#fff" opacity=".96"/>
  <path d="M150 164c42-34 170-34 212 0v164c-42-31-170-31-212 0z" fill="#ffffff" opacity=".94"/>
  <path d="M256 164v160" stroke="#7c3aed" stroke-width="10" stroke-linecap="round" opacity=".28"/>
  <path d="M186 206h48M186 244h48M278 206h48M278 244h48" stroke="#7c3aed" stroke-width="12" stroke-linecap="round" opacity=".42"/>
  <circle cx="256" cy="118" r="42" fill="#fff" opacity=".96"/>
  <text x="256" y="133" text-anchor="middle" font-family="Inter, Arial, sans-serif" font-size="42" font-weight="800" fill="#7c3aed">E</text>
  <text x="256" y="431" text-anchor="middle" font-family="Inter, Arial, sans-serif" font-size="42" font-weight="800" fill="#0f172a">Psychology</text>
</svg>
