<svg xmlns="http://www.w3.org/2000/svg" width="1200" height="630" viewBox="0 0 1200 630" role="img" aria-label="Id, Ego, and Superego Explained"><defs><linearGradient id="g" x1="0" y1="0" x2="1" y2="1"><stop offset="0" stop-color="#f8fbff"/><stop offset="1" stop-color="#eef2ff"/></linearGradient><filter id="shadow" x="-20%" y="-20%" width="140%" height="140%"><feDropShadow dx="0" dy="14" stdDeviation="18" flood-color="#0f172a" flood-opacity="0.16"/></filter></defs><rect width="1200" height="630" fill="url(#g)"/><circle cx="1010" cy="130" r="115" fill="#dc2626" opacity="0.12"/><circle cx="190" cy="520" r="145" fill="#dc2626" opacity="0.10"/><g filter="url(#shadow)"><rect x="115" y="105" width="970" height="420" rx="34" fill="#ffffff"/></g><path d="M230 255c0-57 46-103 103-103s103 46 103 103c0 36-18 67-46 86v46a20 20 0 0 1-20 20h-74a20 20 0 0 1-20-20v-46c-28-19-46-50-46-86z" fill="#dc2626" opacity="0.15"/><path d="M292 411h82M302 447h62" stroke="#dc2626" stroke-width="18" stroke-linecap="round"/><circle cx="333" cy="252" r="58" fill="none" stroke="#dc2626" stroke-width="22"/><path d="M510 220h420M510 280h335M510 340h460" stroke="#cbd5e1" stroke-width="22" stroke-linecap="round"/><text x="145" y="145" font-family="Inter,Arial,sans-serif" font-size="30" font-weight="800" fill="#dc2626">Psychology by Edumynt</text><text x="510" y="430" font-family="Inter,Arial,sans-serif" font-size="44" font-weight="800" fill="#0f172a">Id, Ego, and Superego Explained</text><text x="510" y="482" font-family="Inter,Arial,sans-serif" font-size="36" font-weight="700" fill="#334155">Simple exam notes</text></svg>